<svg width="81" height="82" viewBox="0 0 81 82" fill="none" xmlns="http://www.w3.org/2000/svg">
<g filter="url(#filter0_d_253_5691)">
<rect x="15" y="15" width="51" height="52" rx="25.5" fill="white" shape-rendering="crispEdges"/>
<path d="M35.6446 25.8771C32.4466 26.9994 29.6887 29.1294 27.7759 31.9543C25.8631 34.7792 24.8963 38.1502 25.0175 41.572C25.1386 44.9939 26.3414 48.2862 28.449 50.9655C30.5567 53.6448 33.4582 55.5698 36.7273 56.4577C39.3777 57.1495 42.1545 57.1799 44.8191 56.5462C47.2329 55.9978 49.4645 54.8246 51.2954 53.1416C53.201 51.3365 54.5842 49.0401 55.2963 46.4994C56.07 43.7364 56.2077 40.8308 55.6989 38.0056H40.8157V44.2508H49.435C49.2628 45.2468 48.8936 46.1975 48.3497 47.0458C47.8057 47.8942 47.0982 48.6229 46.2694 49.1882C45.217 49.8927 44.0305 50.3666 42.7861 50.5793C41.5382 50.8141 40.2582 50.8141 39.0103 50.5793C37.7454 50.3151 36.5489 49.787 35.4971 49.0288C33.8071 47.8187 32.5381 46.0996 31.8713 44.1167C31.1934 42.0967 31.1934 39.9068 31.8713 37.8868C32.346 36.4708 33.1307 35.1817 34.1668 34.1154C35.3525 32.8728 36.8537 31.9846 38.5056 31.5483C40.1575 31.1119 41.8963 31.1442 43.5313 31.6417C44.8085 32.0381 45.9765 32.731 46.942 33.6652C47.9139 32.6871 48.8841 31.7066 49.8526 30.7235C50.3527 30.1948 50.8978 29.6915 51.3904 29.1502C49.9165 27.7629 48.1864 26.6833 46.2994 25.9733C42.8629 24.711 39.1028 24.6771 35.6446 25.8771Z" fill="white"/>
<path d="M35.6449 25.8771C39.1028 24.6763 42.8629 24.7093 46.2997 25.9707C48.1871 26.6856 49.9163 27.7704 51.3883 29.1628C50.8882 29.7041 50.3606 30.21 49.8505 30.7361C48.8802 31.7159 47.9109 32.6922 46.9423 33.6652C45.9769 32.731 44.8089 32.0381 43.5316 31.6417C41.8972 31.1425 40.1584 31.1083 38.5061 31.5429C36.8538 31.9775 35.3517 32.864 34.1646 34.1053C33.1285 35.1715 32.3438 36.4607 31.8691 37.8767L26.6855 33.817C28.541 30.0951 31.7535 27.2481 35.6449 25.8771Z" fill="#E33629"/>
<path d="M25.3101 37.8387C25.5885 36.4418 26.051 35.0892 26.6853 33.8169L31.8689 37.8867C31.191 39.9067 31.191 42.0966 31.8689 44.1166C30.1419 45.4657 28.414 46.8214 26.6853 48.1839C25.0979 44.9876 24.6137 41.3457 25.3101 37.8387Z" fill="#F8BD00"/>
<path d="M40.8156 38.0029H55.6987C56.2076 40.8281 56.0698 43.7337 55.2961 46.4967C54.5841 49.0374 53.2009 51.3338 51.2953 53.1389C49.6224 51.8186 47.9421 50.5083 46.2692 49.188C47.0986 48.6221 47.8065 47.8927 48.3504 47.0434C48.8944 46.1941 49.2633 45.2425 49.4349 44.2455H40.8156C40.8131 42.1663 40.8156 40.0846 40.8156 38.0029Z" fill="#587DBD"/>
<path d="M26.6826 48.184C28.4113 46.835 30.1392 45.4792 31.8662 44.1167C32.5344 46.1003 33.8051 47.8195 35.497 49.0288C36.5521 49.7835 37.7512 50.3073 39.0177 50.5667C40.2656 50.8015 41.5456 50.8015 42.7935 50.5667C44.0379 50.3539 45.2244 49.88 46.2768 49.1755C47.9496 50.4959 49.63 51.8061 51.3028 53.1265C49.4722 54.8103 47.2405 55.9844 44.8265 56.5336C42.1619 57.1672 39.3851 57.1368 36.7347 56.445C34.6386 55.8789 32.6806 54.8808 30.9835 53.5135C29.1875 52.0707 27.7204 50.2528 26.6826 48.184Z" fill="#319F43"/>
</g>
<defs>
<filter id="filter0_d_253_5691" x="0" y="0" width="81" height="82" filterUnits="userSpaceOnUse" color-interpolation-filters="sRGB">
<feFlood flood-opacity="0" result="BackgroundImageFix"/>
<feColorMatrix in="SourceAlpha" type="matrix" values="0 0 0 0 0 0 0 0 0 0 0 0 0 0 0 0 0 0 127 0" result="hardAlpha"/>
<feOffset/>
<feGaussianBlur stdDeviation="7.5"/>
<feComposite in2="hardAlpha" operator="out"/>
<feColorMatrix type="matrix" values="0 0 0 0 0 0 0 0 0 0 0 0 0 0 0 0 0 0 0.06 0"/>
<feBlend mode="normal" in2="BackgroundImageFix" result="effect1_dropShadow_253_5691"/>
<feBlend mode="normal" in="SourceGraphic" in2="effect1_dropShadow_253_5691" result="shape"/>
</filter>
</defs>
</svg>
