<svg width="310" height="52" viewBox="0 0 310 52" fill="none" xmlns="http://www.w3.org/2000/svg">
<mask id="mask0_2117_12438" style="mask-type:luminance" maskUnits="userSpaceOnUse" x="162" y="0" width="49" height="52">
<path d="M162.183 0H210.749V51.6607H162.183V0Z" fill="white"/>
</mask>
<g mask="url(#mask0_2117_12438)">
<path d="M184.275 51.7543C175.153 51.7543 167.816 48.3345 163.048 41.8457L162.277 40.7811L173.884 29.9834L174.793 31.1883C177.327 34.5497 180.112 36.129 183.503 36.129C189.047 36.129 192.629 32.1086 192.629 25.8772C192.629 19.6418 189.047 15.6214 183.503 15.6214C180.086 15.6214 177.327 17.2008 174.793 20.5621L173.884 21.7671L162.277 10.9693L163.048 9.90866C167.846 3.41597 175.179 0 184.275 0C199.576 0 210.659 10.8835 210.659 25.8772C210.659 40.8669 199.576 51.7543 184.275 51.7543Z" fill="white"/>
</g>
<mask id="mask1_2117_12438" style="mask-type:luminance" maskUnits="userSpaceOnUse" x="0" y="0" width="49" height="52">
<path d="M0 0H48.8693V51.6607H0V0Z" fill="white"/>
</mask>
<g mask="url(#mask1_2117_12438)">
<path d="M26.4748 51.7543C35.6004 51.7543 42.933 48.3345 47.7017 41.8457L48.4765 40.7811L36.8693 29.9834L35.9597 31.1883C33.4219 34.5497 30.6371 36.129 27.2496 36.129C21.7062 36.129 18.1241 32.1086 18.1241 25.8772C18.1241 19.6418 21.7062 15.6214 27.2496 15.6214C30.667 15.6214 33.4219 17.2008 35.9597 20.5621L36.8693 21.7671L48.4765 10.9693L47.7017 9.90866C42.9068 3.41597 35.5742 0 26.4748 0C11.1769 0 0.09375 10.8835 0.09375 25.8772C0.09375 40.8669 11.1769 51.7543 26.4748 51.7543Z" fill="white"/>
</g>
<mask id="mask2_2117_12438" style="mask-type:luminance" maskUnits="userSpaceOnUse" x="215" y="2" width="44" height="50">
<path d="M215.065 2.58545H258.904V52.0001H215.065V2.58545Z" fill="white"/>
</mask>
<g mask="url(#mask2_2117_12438)">
<path d="M245.724 51.6999V17.5714H258.724V2.64014H215.065V17.5714H228.065V51.6999H245.724Z" fill="white"/>
</g>
<mask id="mask3_2117_12438" style="mask-type:luminance" maskUnits="userSpaceOnUse" x="55" y="2" width="47" height="50">
<path d="M55.416 2.58545H101.807V52.0001H55.416V2.58545Z" fill="white"/>
</mask>
<g mask="url(#mask3_2117_12438)">
<path d="M84.537 21.1587L69.6771 2.67114H55.416V51.6646H72.6977V33.1809L87.5277 51.6646H101.792V2.67114H84.537V21.1587Z" fill="white"/>
</g>
<mask id="mask4_2117_12438" style="mask-type:luminance" maskUnits="userSpaceOnUse" x="109" y="2" width="47" height="50">
<path d="M109.054 2.58545H155.468V52.0001H109.054V2.58545Z" fill="white"/>
</mask>
<g mask="url(#mask4_2117_12438)">
<path d="M138.179 21.1587L123.319 2.67114H109.054V51.6646H126.339V33.1809L141.169 51.6646H155.43V2.67114H138.179V21.1587Z" fill="white"/>
</g>
<mask id="mask5_2117_12438" style="mask-type:luminance" maskUnits="userSpaceOnUse" x="263" y="2" width="47" height="50">
<path d="M263.287 2.58545H310V52.0001H263.287V2.58545Z" fill="white"/>
</mask>
<g mask="url(#mask5_2117_12438)">
<path d="M307.728 21.4786C307.728 10.0101 299.261 2.58545 286.127 2.58545H263.347V51.7544H281.074V40.1144H283.039L290.604 51.7544H309.914L299.946 36.5034C304.999 33.259 307.728 27.9947 307.728 21.4786ZM281.074 17.466H285.169C287.19 17.466 289.896 17.891 289.896 21.4786C289.896 25.0622 287.19 25.4912 285.169 25.4912H281.074V17.466Z" fill="white"/>
</g>
<mask id="mask6_2117_12438" style="mask-type:luminance" maskUnits="userSpaceOnUse" x="51" y="20" width="109" height="11">
<path d="M51.4783 20.8623H159.278V30.8997H51.4783V20.8623Z" fill="white"/>
</mask>
<g mask="url(#mask6_2117_12438)">
<path d="M51.4783 20.8623H159.263V30.8997H51.4783V20.8623Z" fill="#00BF63"/>
</g>
</svg>
