<svg width="146" height="24" viewBox="0 0 146 24" fill="none" xmlns="http://www.w3.org/2000/svg">
<mask id="mask0_2117_12053" style="mask-type:luminance" maskUnits="userSpaceOnUse" x="76" y="0" width="23" height="24">
<path d="M76.1486 0H98.4977V23.4659H76.1486V0Z" fill="white"/>
</mask>
<g mask="url(#mask0_2117_12053)">
<path d="M86.2964 23.2635C82.0244 23.2635 78.5893 21.7271 76.3559 18.8092L75.9937 18.332L81.4298 13.478L81.8545 14.0201C83.0437 15.529 84.3477 16.241 85.9341 16.241C88.5298 16.241 90.2086 14.4323 90.2086 11.6318C90.2086 8.82874 88.5298 7.02253 85.9341 7.02253C84.3352 7.02253 83.0437 7.73202 81.8545 9.24345L81.4298 9.78557L75.9937 4.93151L76.3559 4.45434C78.6018 1.53641 82.0369 0 86.2964 0C93.4613 0 98.6501 4.89153 98.6501 11.6318C98.6501 18.3695 93.4613 23.2635 86.2964 23.2635Z" fill="#00BF63"/>
</g>
<mask id="mask1_2117_12053" style="mask-type:luminance" maskUnits="userSpaceOnUse" x="0" y="0" width="23" height="24">
<path d="M0 0H22.544V23.4659H0V0Z" fill="white"/>
</mask>
<g mask="url(#mask1_2117_12053)">
<path d="M12.3962 23.2635C16.6682 23.2635 20.1033 21.7271 22.3367 18.8092L22.6989 18.332L17.2628 13.478L16.8356 14.0201C15.6489 15.529 14.3448 16.241 12.756 16.241C10.1628 16.241 8.484 14.4323 8.484 11.6318C8.484 8.82874 10.1628 7.02253 12.756 7.02253C14.3573 7.02253 15.6489 7.73202 16.8356 9.24345L17.2628 9.78557L22.6989 4.93151L22.3367 4.45434C20.0908 1.53641 16.6557 0 12.3962 0C5.2313 0 0.039978 4.89153 0.039978 11.6318C0.039978 18.3695 5.2313 23.2635 12.3962 23.2635Z" fill="#00BF63"/>
</g>
<mask id="mask2_2117_12053" style="mask-type:luminance" maskUnits="userSpaceOnUse" x="100" y="1" width="22" height="23">
<path d="M100.719 1.93555H121.344V23.9999H100.719V1.93555Z" fill="white"/>
</mask>
<g mask="url(#mask2_2117_12053)">
<path d="M115.076 24.0123V8.67319H121.164V1.96045H100.719V8.67319H106.807V24.0123H115.076Z" fill="#00BF63"/>
</g>
<mask id="mask3_2117_12053" style="mask-type:luminance" maskUnits="userSpaceOnUse" x="25" y="1" width="23" height="23">
<path d="M25.9518 1.93555H47.5365V23.9999H25.9518V1.93555Z" fill="white"/>
</mask>
<g mask="url(#mask3_2117_12053)">
<path d="M39.5896 10.2845L32.6296 1.9729H25.9518V23.9998H34.046V15.6882L40.9911 23.9998H47.6714V1.9729H39.5896V10.2845Z" fill="#00BF63"/>
</g>
<mask id="mask4_2117_12053" style="mask-type:luminance" maskUnits="userSpaceOnUse" x="51" y="1" width="22" height="23">
<path d="M51.0717 1.93555H72.6564V23.9999H51.0717V1.93555Z" fill="white"/>
</mask>
<g mask="url(#mask4_2117_12053)">
<path d="M64.712 10.2845L57.7519 1.9729H51.0717V23.9998H59.1659V15.6882L66.1135 23.9998H72.7913V1.9729H64.712V10.2845Z" fill="#00BF63"/>
</g>
<mask id="mask5_2117_12053" style="mask-type:luminance" maskUnits="userSpaceOnUse" x="123" y="1" width="23" height="23">
<path d="M123.3 1.93555H145.172V23.9999H123.3V1.93555Z" fill="white"/>
</mask>
<g mask="url(#mask5_2117_12053)">
<path d="M144.113 10.4295C144.113 5.27318 140.148 1.93555 133.995 1.93555H123.328V24.0374H131.629V18.8061H132.551L136.094 24.0374H145.135L140.468 17.1822C142.834 15.7233 144.113 13.3575 144.113 10.4295ZM131.629 8.62581H133.548C134.495 8.62581 135.761 8.81567 135.761 10.4295C135.761 12.0409 134.495 12.2308 133.548 12.2308H131.629V8.62581Z" fill="#00BF63"/>
</g>
<rect x="25.1631" y="9.67822" width="48.3908" height="3.87126" fill="white"/>
</svg>
